:SAMPLES-PER-SECOND 30
:FULLY-SPECIFIED
:DEGREES
231
root  103.519 19.6555 3.48607 -150.883 78.526 158.607
RightUpLeg  -49.9501 -7.95469 7.10933
RightLeg  105.976 4.09408 24.2079
RightFoot  3.51853 0.969892 -6.53068
RightToes  1.16415e-010 -3.18055e-015 8.94531e-016
Spine  21.7968 15.7816 3.82018
Spine1  37.452 1.07476 33.9438
HEad  44.4789 7.9965 -44.2681
LeftShoulder1  0 -2.69403e-036 -1.28585e-037
LeftArm  46.0993 -53.8993 -154.305
LeftForeArm  63.0316 -19.2872 19.9826
LeftHand  2.87895 9.2178 77.3251
RightShoulder  -2.48481e-017 0 -8.08114e-019
RightArm  30.9144 56.4399 -3.6019
RightForeArm  -33.4544 19.4959 -14.3608
RightHand  76.0941 19.7335 157.731
LeftUpLeg  -36.3925 -11.1066 7.48411
LeftLeg  92.8724 -12.7295 -3.2871
LeftFoot  13.526 0.359029 -1.34618
LeftToes  4.502e-010 -1.85808e-011 5.37561e-011
232
root  104.097 19.7671 3.55348 -154.617 79.1727 154.848
RightUpLeg  -48.3587 -7.22062 5.98773
RightLeg  104.506 4.95018 23.5366
RightFoot  1.35757 0.226531 -1.80481
RightToes  1.16415e-010 -3.18055e-015 8.94531e-016
Spine  23.7523 17.81 3.81145
Spine1  33.8329 4.30271 35.21
HEad  46.7894 7.84144 -46.4682
LeftShoulder1  0 -2.69403e-036 -1.28585e-037
LeftArm  51.7529 -51.9079 -155.652
LeftForeArm  68.3908 -20.9009 13.3633
LeftHand  0.367484 6.73384 73.6951
RightShoulder  -2.48481e-017 0 -8.08114e-019
RightArm  71.1683 59.1226 -22.7755
RightForeArm  -118.748 40.9642 -33.8078
RightHand  40.4978 13.9559 138.965
LeftUpLeg  -41.3508 -8.83618 6.62337
LeftLeg  100.006 -12.4492 -3.91316
LeftFoot  11.0429 0.48131 -2.08581
LeftToes  4.502e-010 -1.85808e-011 5.37561e-011
233
root  104.674 19.8321 3.60563 -157.245 81.0055 152.885
RightUpLeg  -46.2921 -5.15418 4.82886
RightLeg  103.199 5.7376 22.6224
RightFoot  -0.30718 -0.35304 3.12505
RightToes  1.16415e-010 -3.18055e-015 8.94531e-016
Spine  17.393 16.0301 -2.27324
Spine1  59.2344 -8.44277 34.344
HEad  32.0647 -0.752387 -41.7292
LeftShoulder1  0 -2.69403e-036 -1.28585e-037
LeftArm  129.337 -76.6727 159.016
LeftForeArm  41.3382 -27.8408 15.7724
LeftHand  -4.88877 0.809261 68.6543
RightShoulder  -2.48481e-017 0 -8.08114e-019
RightArm  3.14584 36.3315 -86.4167
RightForeArm  -178.196 67.7876 -87.686
RightHand  30.6468 21.3805 108.192
LeftUpLeg  -45.7732 -6.12527 5.7383
LeftLeg  106.991 -11.7204 -5.4561
LeftFoot  8.72079 0.45529 -2.18302
LeftToes  4.502e-010 -1.85808e-011 5.37561e-011
234
root  105.257 19.7812 3.60547 -159.884 82.3471 149.818
RightUpLeg  -45.312 -4.25077 3.7373
RightLeg  102.264 6.24108 22.1351
RightFoot  -2.39931 -0.781621 8.2741
RightToes  1.16415e-010 -3.18055e-015 8.94531e-016
Spine  8.10044 14.4071 -9.65641
Spine1  87.1199 -24.2952 35.7437
HEad  12.4364 -11.7503 -38.3477
LeftShoulder1  0 -2.69403e-036 -1.28585e-037
LeftArm  -77.4441 -65.8399 41.0375
LeftForeArm  4.9884 -32.7891 24.7515
LeftHand  -8.83581 -2.8713 72.1449
RightShoulder  -2.48481e-017 0 -8.08114e-019
RightArm  -36.6415 -3.34966 -106.799
RightForeArm  107.381 58.2325 -161.178
RightHand  28.8784 27.9194 93.1716
LeftUpLeg  -52.2971 -4.74257 5.11855
LeftLeg  113.742 -10.6282 -6.90155
LeftFoot  5.50682 0.206764 -1.07913
LeftToes  4.502e-010 -1.85808e-011 5.37561e-011
235
root  105.963 19.8804 3.69631 -172.674 84.3022 140.182
RightUpLeg  -40.0057 -1.67345 2.43531
RightLeg  100.37 7.20978 20.7324
RightFoot  -5.14237 -1.02882 14.852
RightToes  1.16415e-010 -3.18055e-015 8.94531e-016
Spine  18.9437 14.8355 -8.43341
Spine1  56.6307 -12.6467 37.1207
HEad  32.5213 -3.30841 -39.3427
LeftShoulder1  0 -2.69403e-036 -1.28585e-037
LeftArm  46.432 -76.6771 -136.371
LeftForeArm  64.0671 -22.9484 13.3455
LeftHand  -12.2727 -2.00854 92.8738
RightShoulder  -2.48481e-017 0 -8.08114e-019
RightArm  -1.60885 25.8178 -105.068
RightForeArm  57.6779 30.05 -115.004
RightHand  8.91771 18.6112 34.0497
LeftUpLeg  -54.6262 -3.84528 4.73857
LeftLeg  118.844 -9.29613 -8.32777
LeftFoot  1.41845 0.201527 -1.61387
LeftToes  4.502e-010 -1.85808e-011 5.37561e-011
236
root  106.755 20.053 3.79355 166.753 86.1995 125.253
RightUpLeg  -31.5409 1.7023 1.24363
RightLeg  97.5914 8.49658 18.6189
RightFoot  -7.95969 -1.01097 22.1552
RightToes  1.16415e-010 -3.18055e-015 8.94531e-016
Spine  22.9012 14.619 -7.81616
Spine1  55.9118 -11.6601 36.106
HEad  37.7363 -4.90949 -41.8699
LeftShoulder1  0 -2.69403e-036 -1.28585e-037
LeftArm  73.7588 -70.5077 -149.327
LeftForeArm  62.1837 -13.4948 -1.17836
LeftHand  -18.1359 -1.91365 112.78
RightShoulder  -2.48481e-017 0 -8.08114e-019
RightArm  27.7322 54.822 -99.3298
RightForeArm  -65.7206 62.5389 -123.251
RightHand  -3.6567 6.48427 -21.0959
LeftUpLeg  -53.6542 -3.35962 4.49138
LeftLeg  122.475 -7.75529 -9.84988
LeftFoot  -2.4805 0.366513 -4.03545
LeftToes  4.502e-010 -1.85808e-011 5.37561e-011
237
root  107.485 20.0355 3.80325 134.979 87.0856 96.7249
RightUpLeg  -25.7102 3.36434 0.800301
RightLeg  95.2528 9.37599 16.7942
RightFoot  -10.3193 -0.708022 28.3567
RightToes  1.16415e-010 -3.18055e-015 8.94531e-016
Spine  15.9136 17.4853 -8.74372
Spine1  84.3239 -24.3188 39.6286
HEad  27.4787 -15.8624 -58.4342
LeftShoulder1  0 -2.69403e-036 -1.28585e-037
LeftArm  -67.4296 -68.7662 101.752
LeftForeArm  -60.2273 -25.0553 6.65029
LeftHand  -24.5146 -4.4228 115.752
RightShoulder  -2.48481e-017 0 -8.08114e-019
RightArm  16.2606 40.3038 -123.476
RightForeArm  -92.1862 56.4523 -136.437
RightHand  -2.75786 12.1761 -9.75637
LeftUpLeg  -55.0824 -3.25047 4.35691
LeftLeg  125.466 -6.40838 -10.8822
LeftFoot  -5.18237 0.198541 -2.73932
LeftToes  4.502e-010 -1.85808e-011 5.37561e-011
238
root  108.173 20.047 3.9724 76.9483 86.556 41.102
RightUpLeg  -21.4514 6.80136 0.901375
RightLeg  93.2177 10.067 14.1572
RightFoot  -12.2407 -0.271097 34.3008
RightToes  1.16415e-010 -3.18055e-015 8.94531e-016
Spine  17.2528 22.6187 3.8585
Spine1  101.058 -23.7615 33.6088
HEad  20.8901 -35.7307 -43.4422
LeftShoulder1  0 -2.69403e-036 -1.28585e-037
LeftArm  -35.0869 -46.9822 109.218
LeftForeArm  -112.931 -35.9715 20.5001
LeftHand  -25.4827 -5.8094 112.154
RightShoulder  -2.48481e-017 0 -8.08114e-019
RightArm  37.4211 20.9568 -119.246
RightForeArm  -102.984 47.1729 -154.604
RightHand  -2.1284 14.7892 -3.65551
LeftUpLeg  -56.011 -0.871986 4.26718
LeftLeg  126.556 -5.75698 -11.3942
LeftFoot  -6.20676 -0.262669 3.82706
LeftToes  4.502e-010 -1.85808e-011 5.37561e-011
239
root  108.826 20.1454 4.28513 39.2512 82.9537 4.55207
RightUpLeg  -19.1871 11.0449 0.521818
RightLeg  91.4952 10.5378 11.0788
RightFoot  -13.9808 0.31911 40.1191
RightToes  1.16415e-010 -3.18055e-015 8.94531e-016
Spine  21.4968 19.0189 -17.7836
Spine1  89.59 -37.6512 47.8974
HEad  12.3487 -29.9525 -61.2752
LeftShoulder1  0 -2.69403e-036 -1.28585e-037
LeftArm  5.52268 -41.9396 22.1784
LeftForeArm  -53.5063 -33.2456 20.2269
LeftHand  -25.6805 -6.10191 111.589
RightShoulder  -2.48481e-017 0 -8.08114e-019
RightArm  5.5505 5.7863 -134.761
RightForeArm  -106.114 43.5806 -158.638
RightHand  -1.24237 14.9151 -3.51277
LeftUpLeg  -56.7832 2.92476 3.5527
LeftLeg  125.534 -5.7277 -11.7831
LeftFoot  -4.9667 -0.66781 8.62729
LeftToes  4.502e-010 -1.85808e-011 5.37561e-011
240
root  109.481 20.2947 4.55486 34.9293 78.6345 0.028825
RightUpLeg  -18.6473 14.7113 -0.425014
RightLeg  89.7507 10.8442 8.10749
RightFoot  -15.2896 0.913903 45.6985
RightToes  1.16415e-010 -3.18055e-015 8.94531e-016
Spine  20.5173 4.62964 -52.526
Spine1  91.9892 -49.3755 45.2318
HEad  19.1298 -8.74367 -179.374
LeftShoulder1  0 -2.69403e-036 -1.28585e-037
LeftArm  -4.10866 -5.14512 -30.3223
LeftForeArm  -12.2346 -36.581 23.3361
LeftHand  -28.3338 -6.57861 114.47
RightShoulder  -2.48481e-017 0 -8.08114e-019
RightArm  -42.8267 -10.2162 -138.544
RightForeArm  -57.8611 43.6586 -157.597
RightHand  -2.17267 -3.6351 22.7029
LeftUpLeg  -57.4511 6.79044 2.60085
LeftLeg  123.489 -5.70534 -12.5906
LeftFoot  -1.90963 -0.621033 6.31942
LeftToes  4.502e-010 -1.85808e-011 5.37561e-011
